{
	"patcher" : 	{
		"fileversion" : 1,
		"appversion" : 		{
			"major" : 6,
			"minor" : 0,
			"revision" : 7
		}
,
		"rect" : [ 644.0, 134.0, 595.0, 944.0 ],
		"bglocked" : 0,
		"openinpresentation" : 1,
		"default_fontsize" : 12.0,
		"default_fontface" : 0,
		"default_fontname" : "Arial",
		"gridonopen" : 0,
		"gridsize" : [ 8.0, 8.0 ],
		"gridsnaponopen" : 0,
		"statusbarvisible" : 2,
		"toolbarvisible" : 1,
		"boxanimatetime" : 200,
		"imprint" : 0,
		"enablehscroll" : 1,
		"enablevscroll" : 1,
		"devicewidth" : 0.0,
		"description" : "",
		"digest" : "",
		"tags" : "",
		"boxes" : [ 			{
				"box" : 				{
					"fontname" : "Arial",
					"fontsize" : 12.0,
					"id" : "obj-9",
					"maxclass" : "newobj",
					"numinlets" : 1,
					"numoutlets" : 1,
					"outlettype" : [ "" ],
					"patching_rect" : [ 120.0, 480.0, 61.0, 20.0 ],
					"text" : "param 23"
				}

			}
, 			{
				"box" : 				{
					"activedialcolor" : [ 0.1779, 0.853282, 0.103453, 1.0 ],
					"fontface" : 0,
					"fontsize" : 12.0,
					"id" : "obj-10",
					"maxclass" : "live.dial",
					"numinlets" : 1,
					"numoutlets" : 2,
					"outlettype" : [ "", "float" ],
					"parameter_enable" : 1,
					"patching_rect" : [ 64.0, 464.0, 52.0, 51.0 ],
					"presentation" : 1,
					"presentation_rect" : [ 176.0, 72.0, 52.0, 51.0 ],
					"saved_attribute_attributes" : 					{
						"valueof" : 						{
							"parameter_unitstyle" : 0,
							"parameter_type" : 1,
							"parameter_shortname" : "Release",
							"parameter_longname" : "Env2Release",
							"parameter_linknames" : 1
						}

					}
,
					"varname" : "Env2Release"
				}

			}
, 			{
				"box" : 				{
					"fontname" : "Arial",
					"fontsize" : 12.0,
					"id" : "obj-11",
					"maxclass" : "newobj",
					"numinlets" : 1,
					"numoutlets" : 1,
					"outlettype" : [ "" ],
					"patching_rect" : [ 120.0, 424.0, 61.0, 20.0 ],
					"text" : "param 22"
				}

			}
, 			{
				"box" : 				{
					"activedialcolor" : [ 0.1779, 0.853282, 0.103453, 1.0 ],
					"fontface" : 0,
					"fontsize" : 12.0,
					"id" : "obj-12",
					"maxclass" : "live.dial",
					"numinlets" : 1,
					"numoutlets" : 2,
					"outlettype" : [ "", "float" ],
					"parameter_enable" : 1,
					"patching_rect" : [ 64.0, 408.0, 52.0, 51.0 ],
					"presentation" : 1,
					"presentation_rect" : [ 120.0, 72.0, 52.0, 51.0 ],
					"saved_attribute_attributes" : 					{
						"valueof" : 						{
							"parameter_unitstyle" : 0,
							"parameter_type" : 1,
							"parameter_shortname" : "Sustain",
							"parameter_longname" : "Env2Sustain",
							"parameter_linknames" : 1
						}

					}
,
					"varname" : "Env2Sustain"
				}

			}
, 			{
				"box" : 				{
					"fontname" : "Arial",
					"fontsize" : 12.0,
					"id" : "obj-13",
					"maxclass" : "newobj",
					"numinlets" : 1,
					"numoutlets" : 1,
					"outlettype" : [ "" ],
					"patching_rect" : [ 120.0, 368.0, 61.0, 20.0 ],
					"text" : "param 21"
				}

			}
, 			{
				"box" : 				{
					"activedialcolor" : [ 0.1779, 0.853282, 0.103453, 1.0 ],
					"fontface" : 0,
					"fontsize" : 12.0,
					"id" : "obj-14",
					"maxclass" : "live.dial",
					"numinlets" : 1,
					"numoutlets" : 2,
					"outlettype" : [ "", "float" ],
					"parameter_enable" : 1,
					"patching_rect" : [ 64.0, 352.0, 52.0, 51.0 ],
					"presentation" : 1,
					"presentation_rect" : [ 64.0, 72.0, 52.0, 51.0 ],
					"saved_attribute_attributes" : 					{
						"valueof" : 						{
							"parameter_unitstyle" : 0,
							"parameter_type" : 1,
							"parameter_shortname" : "Decay",
							"parameter_longname" : "Env2Decay",
							"parameter_linknames" : 1
						}

					}
,
					"varname" : "Env2Decay"
				}

			}
, 			{
				"box" : 				{
					"fontname" : "Arial",
					"fontsize" : 12.0,
					"id" : "obj-15",
					"maxclass" : "newobj",
					"numinlets" : 1,
					"numoutlets" : 1,
					"outlettype" : [ "" ],
					"patching_rect" : [ 120.0, 312.0, 61.0, 20.0 ],
					"text" : "param 20"
				}

			}
, 			{
				"box" : 				{
					"activedialcolor" : [ 0.1779, 0.853282, 0.103453, 1.0 ],
					"fontface" : 0,
					"fontsize" : 12.0,
					"id" : "obj-16",
					"maxclass" : "live.dial",
					"numinlets" : 1,
					"numoutlets" : 2,
					"outlettype" : [ "", "float" ],
					"parameter_enable" : 1,
					"patching_rect" : [ 64.0, 296.0, 52.0, 51.0 ],
					"presentation" : 1,
					"presentation_rect" : [ 8.0, 72.0, 52.0, 51.0 ],
					"saved_attribute_attributes" : 					{
						"valueof" : 						{
							"parameter_unitstyle" : 0,
							"parameter_type" : 1,
							"parameter_shortname" : "Attack",
							"parameter_longname" : "Env2Attack",
							"parameter_linknames" : 1
						}

					}
,
					"varname" : "Env2Attack"
				}

			}
, 			{
				"box" : 				{
					"fontname" : "Arial",
					"fontsize" : 12.0,
					"id" : "obj-7",
					"maxclass" : "newobj",
					"numinlets" : 1,
					"numoutlets" : 1,
					"outlettype" : [ "" ],
					"patching_rect" : [ 120.0, 256.0, 61.0, 20.0 ],
					"text" : "param 19"
				}

			}
, 			{
				"box" : 				{
					"activedialcolor" : [ 0.1779, 0.853282, 0.103453, 1.0 ],
					"fontface" : 0,
					"fontsize" : 12.0,
					"id" : "obj-8",
					"maxclass" : "live.dial",
					"numinlets" : 1,
					"numoutlets" : 2,
					"outlettype" : [ "", "float" ],
					"parameter_enable" : 1,
					"patching_rect" : [ 64.0, 240.0, 52.0, 51.0 ],
					"presentation" : 1,
					"presentation_rect" : [ 176.0, 8.0, 52.0, 51.0 ],
					"saved_attribute_attributes" : 					{
						"valueof" : 						{
							"parameter_unitstyle" : 0,
							"parameter_type" : 1,
							"parameter_shortname" : "Release",
							"parameter_longname" : "Env1Release",
							"parameter_linknames" : 1
						}

					}
,
					"varname" : "Env1Release"
				}

			}
, 			{
				"box" : 				{
					"fontname" : "Arial",
					"fontsize" : 12.0,
					"id" : "obj-5",
					"maxclass" : "newobj",
					"numinlets" : 1,
					"numoutlets" : 1,
					"outlettype" : [ "" ],
					"patching_rect" : [ 120.0, 200.0, 61.0, 20.0 ],
					"text" : "param 18"
				}

			}
, 			{
				"box" : 				{
					"activedialcolor" : [ 0.1779, 0.853282, 0.103453, 1.0 ],
					"fontface" : 0,
					"fontsize" : 12.0,
					"id" : "obj-6",
					"maxclass" : "live.dial",
					"numinlets" : 1,
					"numoutlets" : 2,
					"outlettype" : [ "", "float" ],
					"parameter_enable" : 1,
					"patching_rect" : [ 64.0, 184.0, 52.0, 51.0 ],
					"presentation" : 1,
					"presentation_rect" : [ 120.0, 8.0, 52.0, 51.0 ],
					"saved_attribute_attributes" : 					{
						"valueof" : 						{
							"parameter_unitstyle" : 0,
							"parameter_type" : 1,
							"parameter_shortname" : "Sustain",
							"parameter_longname" : "Env1Sustain",
							"parameter_linknames" : 1
						}

					}
,
					"varname" : "Env1Sustain"
				}

			}
, 			{
				"box" : 				{
					"fontname" : "Arial",
					"fontsize" : 12.0,
					"id" : "obj-1",
					"maxclass" : "newobj",
					"numinlets" : 1,
					"numoutlets" : 1,
					"outlettype" : [ "" ],
					"patching_rect" : [ 120.0, 144.0, 61.0, 20.0 ],
					"text" : "param 17"
				}

			}
, 			{
				"box" : 				{
					"activedialcolor" : [ 0.1779, 0.853282, 0.103453, 1.0 ],
					"fontface" : 0,
					"fontsize" : 12.0,
					"id" : "obj-2",
					"maxclass" : "live.dial",
					"numinlets" : 1,
					"numoutlets" : 2,
					"outlettype" : [ "", "float" ],
					"parameter_enable" : 1,
					"patching_rect" : [ 64.0, 128.0, 52.0, 51.0 ],
					"presentation" : 1,
					"presentation_rect" : [ 64.0, 8.0, 52.0, 51.0 ],
					"saved_attribute_attributes" : 					{
						"valueof" : 						{
							"parameter_unitstyle" : 0,
							"parameter_type" : 1,
							"parameter_shortname" : "Decay",
							"parameter_longname" : "Env1Decay",
							"parameter_linknames" : 1
						}

					}
,
					"varname" : "Env1Decay"
				}

			}
, 			{
				"box" : 				{
					"fontname" : "Arial",
					"fontsize" : 12.0,
					"id" : "obj-29",
					"maxclass" : "newobj",
					"numinlets" : 1,
					"numoutlets" : 4,
					"outlettype" : [ "", "", "", "" ],
					"patching_rect" : [ 336.0, 120.0, 117.0, 20.0 ],
					"restore" : 					{
						"Env1Attack" : [ 0.0 ],
						"Env1Decay" : [ 13.0 ],
						"Env1Release" : [ 0.0 ],
						"Env1Sustain" : [ 0.0 ],
						"Env2Attack" : [ 0.0 ],
						"Env2Decay" : [ 13.0 ],
						"Env2Release" : [ 0.0 ],
						"Env2Sustain" : [ 0.0 ]
					}
,
					"text" : "autopattr Envelopes",
					"varname" : "Envelopes"
				}

			}
, 			{
				"box" : 				{
					"fontname" : "Arial",
					"fontsize" : 12.0,
					"id" : "obj-3",
					"maxclass" : "newobj",
					"numinlets" : 1,
					"numoutlets" : 1,
					"outlettype" : [ "" ],
					"patching_rect" : [ 120.0, 88.0, 61.0, 20.0 ],
					"text" : "param 16"
				}

			}
, 			{
				"box" : 				{
					"activedialcolor" : [ 0.1779, 0.853282, 0.103453, 1.0 ],
					"fontface" : 0,
					"fontsize" : 12.0,
					"id" : "obj-4",
					"maxclass" : "live.dial",
					"numinlets" : 1,
					"numoutlets" : 2,
					"outlettype" : [ "", "float" ],
					"parameter_enable" : 1,
					"patching_rect" : [ 64.0, 72.0, 52.0, 51.0 ],
					"presentation" : 1,
					"presentation_rect" : [ 8.0, 8.0, 52.0, 51.0 ],
					"saved_attribute_attributes" : 					{
						"valueof" : 						{
							"parameter_unitstyle" : 0,
							"parameter_type" : 1,
							"parameter_shortname" : "Attack",
							"parameter_longname" : "Env1Attack",
							"parameter_linknames" : 1
						}

					}
,
					"varname" : "Env1Attack"
				}

			}
 ],
		"lines" : [ 			{
				"patchline" : 				{
					"destination" : [ "obj-2", 0 ],
					"disabled" : 0,
					"hidden" : 0,
					"source" : [ "obj-1", 0 ]
				}

			}
, 			{
				"patchline" : 				{
					"destination" : [ "obj-9", 0 ],
					"disabled" : 0,
					"hidden" : 0,
					"source" : [ "obj-10", 0 ]
				}

			}
, 			{
				"patchline" : 				{
					"destination" : [ "obj-12", 0 ],
					"disabled" : 0,
					"hidden" : 0,
					"source" : [ "obj-11", 0 ]
				}

			}
, 			{
				"patchline" : 				{
					"destination" : [ "obj-11", 0 ],
					"disabled" : 0,
					"hidden" : 0,
					"source" : [ "obj-12", 0 ]
				}

			}
, 			{
				"patchline" : 				{
					"destination" : [ "obj-14", 0 ],
					"disabled" : 0,
					"hidden" : 0,
					"source" : [ "obj-13", 0 ]
				}

			}
, 			{
				"patchline" : 				{
					"destination" : [ "obj-13", 0 ],
					"disabled" : 0,
					"hidden" : 0,
					"source" : [ "obj-14", 0 ]
				}

			}
, 			{
				"patchline" : 				{
					"destination" : [ "obj-16", 0 ],
					"disabled" : 0,
					"hidden" : 0,
					"source" : [ "obj-15", 0 ]
				}

			}
, 			{
				"patchline" : 				{
					"destination" : [ "obj-15", 0 ],
					"disabled" : 0,
					"hidden" : 0,
					"source" : [ "obj-16", 0 ]
				}

			}
, 			{
				"patchline" : 				{
					"destination" : [ "obj-1", 0 ],
					"disabled" : 0,
					"hidden" : 0,
					"source" : [ "obj-2", 0 ]
				}

			}
, 			{
				"patchline" : 				{
					"destination" : [ "obj-4", 0 ],
					"disabled" : 0,
					"hidden" : 0,
					"source" : [ "obj-3", 0 ]
				}

			}
, 			{
				"patchline" : 				{
					"destination" : [ "obj-3", 0 ],
					"disabled" : 0,
					"hidden" : 0,
					"source" : [ "obj-4", 0 ]
				}

			}
, 			{
				"patchline" : 				{
					"destination" : [ "obj-6", 0 ],
					"disabled" : 0,
					"hidden" : 0,
					"source" : [ "obj-5", 0 ]
				}

			}
, 			{
				"patchline" : 				{
					"destination" : [ "obj-5", 0 ],
					"disabled" : 0,
					"hidden" : 0,
					"source" : [ "obj-6", 0 ]
				}

			}
, 			{
				"patchline" : 				{
					"destination" : [ "obj-8", 0 ],
					"disabled" : 0,
					"hidden" : 0,
					"source" : [ "obj-7", 0 ]
				}

			}
, 			{
				"patchline" : 				{
					"destination" : [ "obj-7", 0 ],
					"disabled" : 0,
					"hidden" : 0,
					"source" : [ "obj-8", 0 ]
				}

			}
, 			{
				"patchline" : 				{
					"destination" : [ "obj-10", 0 ],
					"disabled" : 0,
					"hidden" : 0,
					"source" : [ "obj-9", 0 ]
				}

			}
 ],
		"parameters" : 		{
			"obj-6" : [ "Env1Sustain", "Sustain", 0 ],
			"obj-16" : [ "Env2Attack", "Attack", 0 ],
			"obj-4" : [ "Env1Attack", "Attack", 0 ],
			"obj-14" : [ "Env2Decay", "Decay", 0 ],
			"obj-2" : [ "Env1Decay", "Decay", 0 ],
			"obj-10" : [ "Env2Release", "Release", 0 ],
			"obj-8" : [ "Env1Release", "Release", 0 ],
			"obj-12" : [ "Env2Sustain", "Sustain", 0 ]
		}
,
		"dependency_cache" : [ 			{
				"name" : "param.maxpat",
				"bootpath" : "/Users/thijskoerselman/Documents/Projects/ShruthiEditor",
				"patcherrelativepath" : "",
				"type" : "JSON",
				"implicit" : 1
			}
 ]
	}

}
